HIERARCHY
ROOT mixamorig:Hips
{
	OFFSET 0.000000 0.563568 0.003526
	CHANNELS 6 Xposition Yposition Zposition Xrotation Yrotation Zrotation
	JOINT mixamorig:Spine
	{
		OFFSET 0.000000 0.065228 -0.005709
		CHANNELS 6 Xposition Yposition Zposition Xrotation Yrotation Zrotation
		JOINT mixamorig:Spine1
		{
			OFFSET 0.000000 0.076099 -0.006660
			CHANNELS 3 Xrotation Yrotation Zrotation
			JOINT mixamorig:Spine2
			{
				OFFSET 0.000000 0.086970 -0.007612
				CHANNELS 3 Xrotation Yrotation Zrotation
				JOINT mixamorig:Neck
				{
					OFFSET 0.000000 0.097841 -0.008563
					CHANNELS 6 Xposition Yposition Zposition Xrotation Yrotation Zrotation
					JOINT mixamorig:Head
					{
						OFFSET 0.000000 0.036700 0.014540
						CHANNELS 6 Xposition Yposition Zposition Xrotation Yrotation Zrotation
						JOINT mixamorig:HeadTop_End
						{
							OFFSET 0.000000 0.142277 0.056367
							CHANNELS 6 Xposition Yposition Zposition Xrotation Yrotation Zrotation
							End Site
							{
								OFFSET 0.000000 0.153035 0.000000
							}
						}
					}
				}
				JOINT mixamorig:LeftShoulder
				{
					OFFSET 0.046024 0.085057 -0.009514
					CHANNELS 6 Xposition Yposition Zposition Xrotation Yrotation Zrotation
					JOINT mixamorig:LeftArm
					{
						OFFSET 0.070507 -0.028884 -0.001902
						CHANNELS 6 Xposition Yposition Zposition Xrotation Yrotation Zrotation
						JOINT mixamorig:LeftForeArm
						{
							OFFSET 0.149276 -0.011538 0.001508
							CHANNELS 6 Xposition Yposition Zposition Xrotation Yrotation Zrotation
							JOINT mixamorig:LeftHand
							{
								OFFSET 0.148263 -0.012235 0.005271
								CHANNELS 3 Xrotation Yrotation Zrotation
								JOINT mixamorig:LeftHandThumb1
								{
									OFFSET 0.016599 -0.011479 0.018795
									CHANNELS 6 Xposition Yposition Zposition Xrotation Yrotation Zrotation
									JOINT mixamorig:LeftHandThumb2
									{
										OFFSET 0.013279 -0.009183 0.015036
										CHANNELS 6 Xposition Yposition Zposition Xrotation Yrotation Zrotation
										JOINT mixamorig:LeftHandThumb3
										{
											OFFSET 0.014456 -0.013059 0.010250
											CHANNELS 6 Xposition Yposition Zposition Xrotation Yrotation Zrotation
											JOINT mixamorig:LeftHandThumb4
											{
												OFFSET 0.015409 -0.005836 0.006127
												CHANNELS 6 Xposition Yposition Zposition Xrotation Yrotation Zrotation
												End Site
												{
													OFFSET 0.013332 -0.006041 0.009735
												}
											}
										}
									}
								}
								JOINT mixamorig:LeftHandIndex1
								{
									OFFSET 0.058139 -0.012928 0.026743
									CHANNELS 6 Xposition Yposition Zposition Xrotation Yrotation Zrotation
									JOINT mixamorig:LeftHandIndex2
									{
										OFFSET 0.019478 -0.002795 0.003770
										CHANNELS 6 Xposition Yposition Zposition Xrotation Yrotation Zrotation
										JOINT mixamorig:LeftHandIndex3
										{
											OFFSET 0.018431 -0.006555 0.003525
											CHANNELS 6 Xposition Yposition Zposition Xrotation Yrotation Zrotation
											JOINT mixamorig:LeftHandIndex4
											{
												OFFSET 0.014862 -0.005677 0.002838
												CHANNELS 6 Xposition Yposition Zposition Xrotation Yrotation Zrotation
												End Site
												{
													OFFSET 0.014887 -0.005666 0.002728
												}
											}
										}
									}
								}
								JOINT mixamorig:LeftHandMiddle1
								{
									OFFSET 0.064552 -0.011181 0.012411
									CHANNELS 6 Xposition Yposition Zposition Xrotation Yrotation Zrotation
									JOINT mixamorig:LeftHandMiddle2
									{
										OFFSET 0.020561 -0.003542 0.001522
										CHANNELS 6 Xposition Yposition Zposition Xrotation Yrotation Zrotation
										JOINT mixamorig:LeftHandMiddle3
										{
											OFFSET 0.018977 -0.006194 0.001281
											CHANNELS 6 Xposition Yposition Zposition Xrotation Yrotation Zrotation
											JOINT mixamorig:LeftHandMiddle4
											{
												OFFSET 0.015793 -0.005321 0.001059
												CHANNELS 6 Xposition Yposition Zposition Xrotation Yrotation Zrotation
												End Site
												{
													OFFSET 0.015799 -0.005314 0.000991
												}
											}
										}
									}
								}
								JOINT mixamorig:LeftHandRing1
								{
									OFFSET 0.067743 -0.009572 -0.001152
									CHANNELS 6 Xposition Yposition Zposition Xrotation Yrotation Zrotation
									JOINT mixamorig:LeftHandRing2
									{
										OFFSET 0.015754 -0.004869 0.000370
										CHANNELS 6 Xposition Yposition Zposition Xrotation Yrotation Zrotation
										JOINT mixamorig:LeftHandRing3
										{
											OFFSET 0.015204 -0.005043 0.000338
											CHANNELS 6 Xposition Yposition Zposition Xrotation Yrotation Zrotation
											JOINT mixamorig:LeftHandRing4
											{
												OFFSET 0.013793 -0.001850 0.000454
												CHANNELS 6 Xposition Yposition Zposition Xrotation Yrotation Zrotation
												End Site
												{
													OFFSET 0.013787 -0.001862 0.000563
												}
											}
										}
									}
								}
								JOINT mixamorig:LeftHandPinky1
								{
									OFFSET 0.058240 -0.006670 -0.013857
									CHANNELS 6 Xposition Yposition Zposition Xrotation Yrotation Zrotation
									JOINT mixamorig:LeftHandPinky2
									{
										OFFSET 0.015962 -0.004222 -0.000441
										CHANNELS 6 Xposition Yposition Zposition Xrotation Yrotation Zrotation
										JOINT mixamorig:LeftHandPinky3
										{
											OFFSET 0.013500 -0.006547 -0.000572
											CHANNELS 6 Xposition Yposition Zposition Xrotation Yrotation Zrotation
											JOINT mixamorig:LeftHandPinky4
											{
												OFFSET 0.010668 -0.001383 -0.000195
												CHANNELS 6 Xposition Yposition Zposition Xrotation Yrotation Zrotation
												End Site
												{
													OFFSET 0.010668 -0.001395 -0.000093
												}
											}
										}
									}
								}
							}
						}
					}
				}
				JOINT mixamorig:RightShoulder
				{
					OFFSET -0.046024 0.085057 -0.007612
					CHANNELS 6 Xposition Yposition Zposition Xrotation Yrotation Zrotation
					JOINT mixamorig:RightArm
					{
						OFFSET -0.070507 -0.028884 -0.003805
						CHANNELS 6 Xposition Yposition Zposition Xrotation Yrotation Zrotation
						JOINT mixamorig:RightForeArm
						{
							OFFSET -0.149276 -0.011538 0.001282
							CHANNELS 6 Xposition Yposition Zposition Xrotation Yrotation Zrotation
							JOINT mixamorig:RightHand
							{
								OFFSET -0.148263 -0.012235 0.005588
								CHANNELS 3 Xrotation Yrotation Zrotation
								JOINT mixamorig:RightHandThumb1
								{
									OFFSET -0.016492 -0.012268 0.019296
									CHANNELS 6 Xposition Yposition Zposition Xrotation Yrotation Zrotation
									JOINT mixamorig:RightHandThumb2
									{
										OFFSET -0.013194 -0.009815 0.015437
										CHANNELS 6 Xposition Yposition Zposition Xrotation Yrotation Zrotation
										JOINT mixamorig:RightHandThumb3
										{
											OFFSET -0.015136 -0.011876 0.009573
											CHANNELS 6 Xposition Yposition Zposition Xrotation Yrotation Zrotation
											JOINT mixamorig:RightHandThumb4
											{
												OFFSET -0.014578 -0.005026 0.006542
												CHANNELS 6 Xposition Yposition Zposition Xrotation Yrotation Zrotation
												End Site
												{
													OFFSET -0.012886 -0.005077 0.009421
												}
											}
										}
									}
								}
								JOINT mixamorig:RightHandIndex1
								{
									OFFSET -0.060353 -0.013094 0.027023
									CHANNELS 6 Xposition Yposition Zposition Xrotation Yrotation Zrotation
									JOINT mixamorig:RightHandIndex2
									{
										OFFSET -0.019556 -0.003388 0.003747
										CHANNELS 6 Xposition Yposition Zposition Xrotation Yrotation Zrotation
										JOINT mixamorig:RightHandIndex3
										{
											OFFSET -0.017538 -0.006243 0.003332
											CHANNELS 6 Xposition Yposition Zposition Xrotation Yrotation Zrotation
											JOINT mixamorig:RightHandIndex4
											{
												OFFSET -0.013927 -0.005867 0.002640
												CHANNELS 6 Xposition Yposition Zposition Xrotation Yrotation Zrotation
												End Site
												{
													OFFSET -0.013946 -0.005861 0.002548
												}
											}
										}
									}
								}
								JOINT mixamorig:RightHandMiddle1
								{
									OFFSET -0.069900 -0.011737 0.012215
									CHANNELS 6 Xposition Yposition Zposition Xrotation Yrotation Zrotation
									JOINT mixamorig:RightHandMiddle2
									{
										OFFSET -0.018027 -0.003254 0.001949
										CHANNELS 6 Xposition Yposition Zposition Xrotation Yrotation Zrotation
										JOINT mixamorig:RightHandMiddle3
										{
											OFFSET -0.018049 -0.006266 0.001863
											CHANNELS 6 Xposition Yposition Zposition Xrotation Yrotation Zrotation
											JOINT mixamorig:RightHandMiddle4
											{
												OFFSET -0.012728 0.000405 0.001448
												CHANNELS 6 Xposition Yposition Zposition Xrotation Yrotation Zrotation
												End Site
												{
													OFFSET -0.012711 0.000393 0.001595
												}
											}
										}
									}
								}
								JOINT mixamorig:RightHandRing1
								{
									OFFSET -0.073747 -0.012707 -0.000657
									CHANNELS 6 Xposition Yposition Zposition Xrotation Yrotation Zrotation
									JOINT mixamorig:RightHandRing2
									{
										OFFSET -0.014667 -0.003480 0.000431
										CHANNELS 6 Xposition Yposition Zposition Xrotation Yrotation Zrotation
										JOINT mixamorig:RightHandRing3
										{
											OFFSET -0.013545 -0.003837 0.000370
											CHANNELS 6 Xposition Yposition Zposition Xrotation Yrotation Zrotation
											JOINT mixamorig:RightHandRing4
											{
												OFFSET -0.009662 -0.000523 0.000371
												CHANNELS 6 Xposition Yposition Zposition Xrotation Yrotation Zrotation
												End Site
												{
													OFFSET -0.009659 -0.000529 0.000436
												}
											}
										}
									}
								}
								JOINT mixamorig:RightHandPinky1
								{
									OFFSET -0.055387 -0.006842 -0.012656
									CHANNELS 6 Xposition Yposition Zposition Xrotation Yrotation Zrotation
									JOINT mixamorig:RightHandPinky2
									{
										OFFSET -0.017334 -0.004221 -0.001570
										CHANNELS 6 Xposition Yposition Zposition Xrotation Yrotation Zrotation
										JOINT mixamorig:RightHandPinky3
										{
											OFFSET -0.014222 -0.005827 -0.001465
											CHANNELS 6 Xposition Yposition Zposition Xrotation Yrotation Zrotation
											JOINT mixamorig:RightHandPinky4
											{
												OFFSET -0.011262 -0.001679 -0.000943
												CHANNELS 6 Xposition Yposition Zposition Xrotation Yrotation Zrotation
												End Site
												{
													OFFSET -0.011266 -0.001685 -0.000890
												}
											}
										}
									}
								}
							}
						}
					}
				}
			}
		}
	}
	JOINT mixamorig:LeftUpLeg
	{
		OFFSET 0.080402 -0.036238 -0.004361
		CHANNELS 6 Xposition Yposition Zposition Xrotation Yrotation Zrotation
		JOINT mixamorig:LeftLeg
		{
			OFFSET 0.000000 -0.246371 -0.002978
			CHANNELS 3 Xrotation Yrotation Zrotation
			JOINT mixamorig:LeftFoot
			{
				OFFSET 0.008859 -0.219221 -0.017499
				CHANNELS 3 Xrotation Yrotation Zrotation
				JOINT mixamorig:LeftToeBase
				{
					OFFSET 0.006850 -0.065070 0.084472
					CHANNELS 6 Xposition Yposition Zposition Xrotation Yrotation Zrotation
					JOINT mixamorig:LeftToe_End
					{
						OFFSET 0.002745 0.000270 0.043150
						CHANNELS 3 Xrotation Yrotation Zrotation
						End Site
						{
							OFFSET 0.002745 0.000270 0.043150
						}
					}
				}
			}
		}
	}
	JOINT mixamorig:RightUpLeg
	{
		OFFSET -0.080402 -0.036238 -0.004783
		CHANNELS 6 Xposition Yposition Zposition Xrotation Yrotation Zrotation
		JOINT mixamorig:RightLeg
		{
			OFFSET 0.000000 -0.246371 -0.003118
			CHANNELS 3 Xrotation Yrotation Zrotation
			JOINT mixamorig:RightFoot
			{
				OFFSET -0.008859 -0.219221 -0.016482
				CHANNELS 3 Xrotation Yrotation Zrotation
				JOINT mixamorig:RightToeBase
				{
					OFFSET -0.006261 -0.065095 0.084808
					CHANNELS 6 Xposition Yposition Zposition Xrotation Yrotation Zrotation
					JOINT mixamorig:RightToe_End
					{
						OFFSET -0.003433 0.000265 0.043469
						CHANNELS 6 Xposition Yposition Zposition Xrotation Yrotation Zrotation
						End Site
						{
							OFFSET -0.003433 0.000265 0.043469
						}
					}
				}
			}
		}
	}
}
MOTION
Frames: 3
Frame Time: 0.033333
-0.001657 0.542746 0.017325 -2.686412 -8.586857 0.959788 -0.000000 0.065228 -0.005709 5.187112 6.691877 -2.812905 0.288638 1.896722 -0.669907 0.279884 1.899522 -0.679167 -0.000000 0.097841 -0.008563 -1.559053 -0.168496 0.179565 0.000000 0.036700 0.014540 -1.386266 1.631771 1.954736 -0.000000 0.142277 0.056367 -0.000000 -0.000000 -0.000000 0.046024 0.085057 -0.009514 1.004201 2.262578 -16.840960 0.070507 -0.028884 -0.001902 9.683836 8.058023 -59.850735 0.149276 -0.011538 0.001508 -0.494338 -6.282141 0.270333 4.429011 5.633678 6.114653 0.016599 -0.011479 0.018795 21.681136 8.904997 -13.746932 0.013279 -0.009183 0.015036 1.677398 12.811081 14.948847 0.014456 -0.013059 0.010250 -10.511763 -35.785642 -10.514626 0.015409 -0.005836 0.006127 -0.000000 -0.000000 -0.000001 0.058139 -0.012928 0.026743 3.941851 3.838130 -16.427358 0.019478 -0.002795 0.003770 7.089738 5.941513 -21.691764 0.018431 -0.006555 0.003525 2.923580 2.172497 -9.697175 0.014862 -0.005676 0.002838 -0.000000 0.000001 -0.000005 0.064552 -0.011181 0.012411 4.242479 2.352048 -24.879166 0.020561 -0.003542 0.001522 4.328215 6.024224 -21.224640 0.018977 -0.006194 0.001281 1.014309 1.519505 -6.121338 0.015793 -0.005321 0.001058 -0.000001 0.000001 -0.000005 0.067743 -0.009572 -0.001152 4.960827 3.645520 -23.008375 0.015754 -0.004869 0.000370 3.704800 5.534681 -23.406947 0.015204 -0.005044 0.000338 1.669625 2.627518 -19.519467 0.013793 -0.001850 0.000454 -0.000002 -0.000001 0.000000 0.058240 -0.006670 -0.013857 1.215908 -1.116780 -28.661458 0.015962 -0.004222 -0.000441 2.892851 6.332782 -17.803759 0.013500 -0.006547 -0.000572 2.342385 5.187912 -35.325708 0.010668 -0.001383 -0.000195 0.000003 0.000000 0.000002 -0.046024 0.085057 -0.007612 0.329181 6.372291 18.465679 -0.070507 -0.028884 -0.003805 -8.958232 18.718822 52.400668 -0.149276 -0.011538 0.001282 -1.175472 14.778678 -0.144586 -8.084432 4.306275 -14.074235 -0.016492 -0.012268 0.019296 -3.589330 -15.472752 -2.898010 -0.013194 -0.009815 0.015437 8.915959 -9.054515 -1.212188 -0.015136 -0.011876 0.009573 -14.128959 20.182101 0.751770 -0.014578 -0.005026 0.006542 -0.000001 0.000006 -0.000000 -0.060353 -0.013094 0.027023 4.813835 -3.327876 24.844577 -0.019556 -0.003388 0.003747 4.805246 -3.616257 16.537753 -0.017538 -0.006243 0.003332 2.934556 -1.911249 10.150397 -0.013927 -0.005867 0.002640 -0.000003 -0.000000 0.000001 -0.069900 -0.011737 0.012215 6.256920 -3.595600 32.885363 -0.018027 -0.003254 0.001949 4.092157 -4.197015 19.637062 -0.018049 -0.006266 0.001863 5.853685 -2.126324 39.450295 -0.012728 0.000405 0.001448 -0.000002 0.000001 0.000001 -0.073747 -0.012707 -0.000657 5.647136 -3.141722 30.956658 -0.014667 -0.003480 0.000431 5.048033 -6.061532 36.252503 -0.013545 -0.003837 0.000370 2.143140 -2.920607 26.464989 -0.009662 -0.000523 0.000371 0.000002 0.000001 0.000000 -0.055387 -0.006842 -0.012656 -0.981884 4.093430 27.910508 -0.017334 -0.004220 -0.001570 0.675248 -4.813782 16.784833 -0.014222 -0.005827 -0.001465 -0.177497 -5.069996 31.174619 -0.011262 -0.001679 -0.000943 -0.000000 -0.000002 -0.000005 0.080402 -0.036238 -0.004361 -25.384868 7.301883 -2.153202 25.706225 10.059368 -0.102151 1.629963 -0.080490 4.420316 0.006850 -0.065070 0.084472 -2.100245 0.000014 -0.000190 0.000001 0.000000 0.000000 -0.080402 -0.036238 -0.004783 3.914366 -5.841931 -5.439014 55.688233 -2.418563 -2.542746 15.023817 1.052368 7.389208 -0.006261 -0.065095 0.084808 -0.971554 0.000003 -0.000059 -0.003433 0.000265 0.043469 -0.000002 -0.000000 -0.000002 
-0.000678 0.549952 0.016188 -3.208060 -7.379738 0.531431 -0.000000 0.065228 -0.005709 5.533896 5.393681 -2.186666 0.411647 1.525842 -0.564639 0.405305 1.528355 -0.574712 0.000000 0.097841 -0.008563 -1.456713 -0.066635 0.085761 -0.000000 0.036700 0.014540 -1.443873 1.910969 1.791197 0.000000 0.142277 0.056367 0.000000 0.000000 0.000000 0.046024 0.085057 -0.009514 0.976566 1.656532 -17.205574 0.070507 -0.028884 -0.001902 6.797448 5.588310 -59.500066 0.149276 -0.011538 0.001508 -0.517918 -6.583393 0.267627 0.761470 5.090756 7.940433 0.016599 -0.011479 0.018795 22.364946 8.987403 -14.218881 0.013279 -0.009183 0.015036 1.897554 13.172470 14.864483 0.014456 -0.013059 0.010250 -10.402607 -34.727916 -11.360351 0.015409 -0.005836 0.006127 0.000002 -0.000001 -0.000003 0.058139 -0.012928 0.026743 4.501544 4.150659 -18.718137 0.019478 -0.002795 0.003770 7.618373 6.102269 -23.314607 0.018431 -0.006555 0.003525 3.440238 2.450029 -11.375415 0.014862 -0.005676 0.002838 0.000001 -0.000002 -0.000005 0.064552 -0.011181 0.012411 4.774708 2.708042 -27.214979 0.020561 -0.003542 0.001522 4.757538 6.340555 -23.160801 0.018977 -0.006194 0.001281 1.321001 1.902841 -7.873697 0.015793 -0.005321 0.001059 -0.000001 0.000000 0.000002 0.067743 -0.009572 -0.001152 5.501174 3.952021 -25.152131 0.015754 -0.004869 0.000370 4.080599 5.882870 -25.279474 0.015204 -0.005043 0.000338 1.939168 3.014015 -21.250254 0.013793 -0.001850 0.000454 -0.000001 -0.000001 -0.000000 0.058240 -0.006670 -0.013857 1.545210 -0.705899 -30.889206 0.015963 -0.004222 -0.000441 3.173821 6.712161 -19.604023 0.013500 -0.006547 -0.000572 2.646660 5.551764 -37.082849 0.010668 -0.001383 -0.000195 -0.000000 -0.000000 0.000003 -0.046024 0.085057 -0.007612 0.366841 5.977246 18.336357 -0.070507 -0.028884 -0.003805 -7.886936 16.995696 53.663676 -0.149276 -0.011538 0.001282 -0.899572 11.394899 -0.207457 -6.361651 3.774079 -13.690902 -0.016492 -0.012268 0.019296 -3.821009 -15.862783 -2.805444 -0.013194 -0.009814 0.015437 8.860811 -8.911434 -1.268488 -0.015136 -0.011876 0.009573 -13.737241 19.734104 1.123024 -0.014578 -0.005026 0.006542 -0.000001 -0.000003 0.000001 -0.060353 -0.013094 0.027023 5.051222 -3.505427 25.587909 -0.019556 -0.003388 0.003747 4.999485 -3.674992 17.225879 -0.017538 -0.006243 0.003332 3.216180 -2.022946 11.150711 -0.013927 -0.005867 0.002640 -0.000003 0.000001 -0.000001 -0.069900 -0.011737 0.012215 6.401597 -3.636135 33.555869 -0.018027 -0.003254 0.001949 4.217958 -4.261667 20.227165 -0.018049 -0.006266 0.001863 5.888827 -2.139349 39.625858 -0.012728 0.000405 0.001448 0.000001 -0.000001 0.000002 -0.073747 -0.012707 -0.000657 6.033946 -3.469608 31.361838 -0.014667 -0.003480 0.000431 5.119091 -6.103384 36.645386 -0.013545 -0.003837 0.000370 2.186722 -2.971822 26.790806 -0.009662 -0.000523 0.000371 0.000000 0.000001 -0.000001 -0.055388 -0.006842 -0.012656 -0.775181 3.770164 28.523500 -0.017335 -0.004220 -0.001570 0.723479 -5.017287 17.760275 -0.014222 -0.005827 -0.001465 -0.152642 -5.142820 31.510282 -0.011262 -0.001679 -0.000943 0.000003 0.000001 -0.000002 0.080402 -0.036238 -0.004361 -20.628529 7.773754 -2.440392 24.829199 8.622470 -0.495115 -1.669988 -0.238091 4.712740 0.006850 -0.065070 0.084472 -2.101683 0.000018 -0.000190 0.000000 0.000001 0.000000 -0.080402 -0.036237 -0.004783 -2.447337 -5.267898 -4.630960 63.154395 -4.753132 -1.367687 8.461901 0.430513 4.225102 -0.006261 -0.065095 0.084808 -1.053983 0.000006 -0.000066 -0.003433 0.000265 0.043469 -0.000001 0.000001 -0.000001 
-0.000226 0.557245 0.014644 -3.677077 -6.350182 0.018896 -0.000000 0.065227 -0.005709 5.836918 3.930487 -1.529133 0.525846 1.111680 -0.431452 0.522005 1.113969 -0.440612 0.000000 0.097841 -0.008563 -1.318892 0.055783 0.041755 -0.000000 0.036700 0.014540 -1.503977 2.447190 1.676885 0.000000 0.142277 0.056367 -0.000000 -0.000000 -0.000000 0.046024 0.085057 -0.009514 0.975347 1.464842 -17.494843 0.070507 -0.028884 -0.001902 3.863896 2.640441 -59.208328 0.149276 -0.011538 0.001508 -0.568606 -7.229377 0.261490 -2.574959 4.392300 9.252975 0.016599 -0.011479 0.018795 23.048757 9.064145 -14.691324 0.013280 -0.009183 0.015036 2.147003 13.576075 14.768064 0.014456 -0.013059 0.010250 -10.436284 -34.556922 -11.594406 0.015409 -0.005836 0.006127 0.000003 -0.000001 -0.000003 0.058139 -0.012928 0.026743 4.932277 4.326815 -20.590643 0.019478 -0.002795 0.003770 8.231849 6.268626 -25.183065 0.018431 -0.006556 0.003525 3.990731 2.724716 -13.138566 0.014862 -0.005676 0.002838 -0.000002 0.000000 -0.000008 0.064553 -0.011181 0.012411 5.300346 2.978083 -29.824304 0.020561 -0.003542 0.001522 5.219030 6.656377 -25.193708 0.018977 -0.006194 0.001281 1.687889 2.331551 -9.890543 0.015793 -0.005321 0.001058 -0.000003 0.000001 0.000002 0.067743 -0.009572 -0.001152 6.139207 4.260509 -27.790537 0.015754 -0.004869 0.000370 4.532572 6.272584 -27.463933 0.015204 -0.005044 0.000338 2.274643 3.462492 -23.310372 0.013793 -0.001850 0.000454 -0.000002 -0.000001 0.000003 0.058240 -0.006670 -0.013857 1.949349 -0.248132 -33.633077 0.015963 -0.004222 -0.000441 3.541494 7.173099 -21.855845 0.013500 -0.006547 -0.000572 3.042171 5.992533 -39.279940 0.010668 -0.001383 -0.000195 -0.000001 0.000000 0.000002 -0.046024 0.085057 -0.007612 0.401370 5.674367 18.081034 -0.070507 -0.028884 -0.003805 -6.301899 15.050117 54.873866 -0.149276 -0.011538 0.001282 -0.684983 8.704361 -0.245187 -4.053319 2.121139 -11.913213 -0.016492 -0.012268 0.019296 -4.052379 -16.252983 -2.714382 -0.013194 -0.009815 0.015437 8.772715 -8.680609 -1.358792 -0.015136 -0.011876 0.009573 -13.224986 19.151765 1.627541 -0.014578 -0.005026 0.006542 -0.000001 -0.000003 0.000002 -0.060353 -0.013094 0.027023 5.101132 -3.487847 25.978778 -0.019556 -0.003388 0.003747 5.155594 -3.720380 17.777410 -0.017538 -0.006243 0.003332 3.441342 -2.108195 11.945923 -0.013927 -0.005867 0.002640 -0.000005 -0.000001 -0.000001 -0.069900 -0.011737 0.012215 6.505974 -3.642494 34.171003 -0.018027 -0.003254 0.001949 4.334867 -4.320311 20.772837 -0.018049 -0.006266 0.001863 5.965021 -2.167127 40.006064 -0.012728 0.000405 0.001448 0.000002 -0.000002 0.000002 -0.073747 -0.012708 -0.000657 6.127381 -3.505339 31.750035 -0.014667 -0.003480 0.000431 5.220786 -6.162168 37.205089 -0.013545 -0.003837 0.000370 2.249836 -3.044974 27.259048 -0.009662 -0.000523 0.000371 -0.000000 0.000000 -0.000001 -0.055387 -0.006842 -0.012656 -0.775360 3.717391 28.862265 -0.017335 -0.004221 -0.001570 0.752089 -5.131181 18.308179 -0.014222 -0.005827 -0.001465 -0.116966 -5.244971 31.982538 -0.011262 -0.001679 -0.000943 0.000004 -0.000001 -0.000008 0.080402 -0.036238 -0.004361 -15.068253 8.326830 -2.457969 21.984414 7.079801 -0.908599 -3.853180 -0.289905 5.029051 0.006850 -0.065070 0.084472 -2.103298 0.000011 -0.000188 0.000001 0.000001 0.000000 -0.080402 -0.036238 -0.004783 -8.419682 -5.016510 -3.398582 66.031223 -2.902889 -0.248099 5.501557 0.290431 1.261413 -0.006261 -0.065095 0.084808 -1.560956 0.000005 -0.000092 -0.003433 0.000265 0.043469 -0.000002 0.000001 -0.000000 
